<svg height="800" viewBox="0 0 64 64" width="800" xmlns="http://www.w3.org/2000/svg"><circle cx="31.5" cy="32.5" fill="#e5efef" r="21.5"/><circle cx="25" cy="18" fill="#4c241d" r="1"/><circle cx="33" cy="9" fill="#4c241d" r="1"/><g stroke="#4c241d" stroke-linecap="round" stroke-linejoin="round" stroke-width="2"><path d="m12 6.463v1.415" fill="none"/><path d="m12 12.122v1.415" fill="none"/><path d="m8.463 10h1.415" fill="none"/><path d="m14.122 10h1.415" fill="none"/><circle cx="45.5" cy="8.5" fill="none" r="2.5"/><path d="m53.837 20.663-3.674 3.674" fill="none"/><path d="m50.163 20.663 3.674 3.674" fill="none"/><path d="m35.711 50h-13.882a5.63 5.63 0 0 1 -3.308-1.075l-17.521-14.925h48l-8.388 13.134a5.624 5.624 0 0 1 -4.901 2.866z" fill="#ffce56"/><path d="m24.3 30h8.4a3.3 3.3 0 0 1 3.3 3.3v.7a0 0 0 0 1 0 0h-15a0 0 0 0 1 0 0v-.7a3.3 3.3 0 0 1 3.3-3.3z" fill="#fc8c29"/><path d="m28.5 21a2.5 2.5 0 0 1 2.5 2.5v6.5a0 0 0 0 1 0 0h-5a0 0 0 0 1 0 0v-6.5a2.5 2.5 0 0 1 2.5-2.5z" fill="#ffce56"/><path d="m25 26h-6.227a5.772 5.772 0 0 0 -5.773 5.773v1.786" fill="none"/><path d="m31 26h6.227a5.772 5.772 0 0 1 5.773 5.773v1.786" fill="none"/><path d="m7 39h15" fill="none"/><path d="m25 39h6" fill="none"/><path d="m33 54a2 2 0 0 1 -2-2v-2h-5v2a2 2 0 0 1 -2 2 3 3 0 0 0 -3 3h15a3 3 0 0 0 -3-3z" fill="#fc8c29"/><path d="m48 34h12a3 3 0 0 1 3 3v3a3 3 0 0 1 -3 3h-1a3 3 0 0 1 -3-3" fill="none"/><path d="m10 57h39" fill="none"/></g></svg>